# xmcd
#
# Track frame offsets:
#	150
#	23518
#	46952
#	76846
#	97472
#	115953
#	137995
#	167574
#	188327
#	220948
#	241395
#
# Disc length: 3399 seconds
#
# Revision: 0
# Processed by: cddbd v1.5.2PL0 Copyright (c) Steve Scherf et al.
# Submitted via: EasyCDDAExtractor 8.2.3.1
#
DISCID=8e0d450b
DTITLE=ALBERT CASTIGLIA - These Are The Days
DYEAR=2008
DGENRE=Blues
TTITLE0=Bad Year Blues
TTITLE1=He's Got All The Wiskey
TTITLE2=Loan Me A Dime
TTITLE3=Godfather Of The Blues
TTITLE4=Celebration
TTITLE5=Nightime Is The Right Time
TTITLE6=Catfish
TTITLE7=Another Bloody Day
TTITLE8=Need Your Love So Bad
TTITLE9=Twister
TTITLE10=Blues For Evan
EXTD=
EXTT0=
EXTT1=
EXTT2=
EXTT3=
EXTT4=
EXTT5=
EXTT6=
EXTT7=
EXTT8=
EXTT9=
EXTT10=
PLAYORDER=
